<?xml version="1.0" encoding="UTF-8" standalone="no"?>
<!-- Created with Inkscape (http://www.inkscape.org/) -->

<svg
   xmlns:dc="http://purl.org/dc/elements/1.1/"
   xmlns:cc="http://creativecommons.org/ns#"
   xmlns:rdf="http://www.w3.org/1999/02/22-rdf-syntax-ns#"
   xmlns:svg="http://www.w3.org/2000/svg"
   xmlns="http://www.w3.org/2000/svg"
   xmlns:sodipodi="http://sodipodi.sourceforge.net/DTD/sodipodi-0.dtd"
   xmlns:inkscape="http://www.inkscape.org/namespaces/inkscape"
   width="570.60223"
   height="176.50252"
   viewBox="0 0 570.60224 176.50252"
   id="svg3417"
   version="1.1"
   inkscape:version="0.91 r13725"
   sodipodi:docname="FF-Niederrhein_Logo_Master Pfade_web.svg">
  <defs
     id="defs3419" />
  <sodipodi:namedview
     id="base"
     pagecolor="#ffffff"
     bordercolor="#666666"
     borderopacity="1.0"
     inkscape:pageopacity="0.0"
     inkscape:pageshadow="2"
     inkscape:zoom="1.4"
     inkscape:cx="296.8732"
     inkscape:cy="-40.630341"
     inkscape:document-units="px"
     inkscape:current-layer="text3426"
     showgrid="false"
     units="px"
     fit-margin-top="0"
     fit-margin-left="0"
     fit-margin-right="0"
     fit-margin-bottom="0"
     inkscape:window-width="1608"
     inkscape:window-height="1028"
     inkscape:window-x="64"
     inkscape:window-y="-8"
     inkscape:window-maximized="1" />
  <metadata
     id="metadata3422">
    <rdf:RDF>
      <cc:Work
         rdf:about="">
        <dc:format>image/svg+xml</dc:format>
        <dc:type
           rdf:resource="http://purl.org/dc/dcmitype/StillImage" />
        <dc:title></dc:title>
      </cc:Work>
    </rdf:RDF>
  </metadata>
  <g
     inkscape:label="Ebene 1"
     inkscape:groupmode="layer"
     id="layer1"
     transform="translate(-31.841748,-49.825186)">
    <g
       id="g3397"
       transform="matrix(1.7497717,0,0,1.7497717,49.012893,65.18185)"
       inkscape:export-xdpi="259.63657"
       inkscape:export-ydpi="259.63657">
      <g
         id="g3337">
        <path
           id="path3339"
           d="M 0,53.3 C 0,37.4 12.9,24.5 28.8,24.5 44.7,24.5 57.6,37.4 57.6,53.3 57.6,69.2 44.7,82 28.8,82 12.9,82 0,69.1 0,53.3 l 0,0 z"
           inkscape:connector-curvature="0"
           style="fill:#ffffff" />
        <path
           id="path3341"
           d="M 27.2,41.9 C 27.2,18.7 45.8,0 68.9,0 c 23,0 41.7,18.7 41.7,41.9 0,23.2 -18.7,41.8 -41.7,41.8 C 45.8,83.7 27.2,65 27.2,41.9 l 0,0 z"
           inkscape:connector-curvature="0"
           style="fill:#ffffff" />
        <path
           id="path3343"
           d="M 28.8,76.4 C 16,76.4 5.7,66 5.7,53.3 5.7,40.6 16,30.1 28.8,30.1 c 12.7,0 23.1,10.4 23.1,23.2 0,12.8 -10.4,23.1 -23.1,23.1 z m 0,-45.2 c -12.1,0 -22,9.9 -22,22.1 0,12.2 9.9,22.1 22,22.1 12.1,0 22,-9.9 22,-22.1 0,-12.2 -9.9,-22.1 -22,-22.1 z"
           inkscape:connector-curvature="0"
           style="fill:#dc0267" />
        <polygon
           id="polygon3345"
           points="57.6,48.1 67.2,38.5 76.2,38.5 69.8,44.9 82.5,44.9 82.5,51.3 69.8,51.3 76.2,57.7 67.2,57.7 57.6,48.1 "
           style="fill:#fab313" />
        <polygon
           id="polygon3347"
           points="29.4,48.1 23.7,42.5 18.4,42.5 22.2,46.2 14.7,46.2 14.7,50 22.2,50 18.4,53.8 23.7,53.8 29.4,48.1 "
           style="fill:#fab313" />
        <path
           id="path3349"
           d="M 68.9,76.9 C 49.6,76.9 34,61.2 34,41.8 34,22.5 49.7,6.7 68.9,6.7 c 19.3,0 34.9,15.7 34.9,35.1 0,19.4 -15.7,35.1 -34.9,35.1 z m 0,-63.3 c -15.5,0 -28.1,12.7 -28.1,28.3 0,15.6 12.6,28.3 28.1,28.3 C 84.4,70.1 97,57.5 97,41.9 97,26.3 84.4,13.6 68.9,13.6 Z"
           inkscape:connector-curvature="0"
           style="fill:#dc0267" />
        <path
           id="path3351"
           d="M 68.9,66.7 C 55.3,66.7 44.2,55.6 44.2,41.9 44.1,28.2 55.2,17 68.9,17 c 13.7,0 24.7,11.1 24.7,24.8 0,13.8 -11.1,24.9 -24.7,24.9 z m 0,-48.5 c -13,0 -23.6,10.6 -23.6,23.7 0,13.1 10.6,23.7 23.6,23.7 13,0 23.6,-10.6 23.6,-23.7 0,-13.1 -10.6,-23.7 -23.6,-23.7 z"
           inkscape:connector-curvature="0"
           style="fill:#dc0267" />
      </g>
      <g
         transform="scale(1.0316026,0.96936553)"
         style="font-style:normal;font-weight:normal;font-size:42.41165543px;line-height:85.00000238%;font-family:sans-serif;letter-spacing:0px;word-spacing:0px;fill:#dc0267;fill-opacity:1;stroke:none;stroke-width:1px;stroke-linecap:butt;stroke-linejoin:miter;stroke-opacity:1"
         id="text3426">
        <path
           d="m 119.2452,42.566181 0,-28.808594 10.72266,0 0,4.003907 -4.96094,0 0,6.640625 4.84375,0 0,4.160156 -4.84375,0 0,14.003906 -5.76172,0 z"
           style="font-style:normal;font-variant:normal;font-weight:normal;font-stretch:condensed;font-size:40px;line-height:85.00000238%;font-family:'Swiss911 XCm BT';-inkscape-font-specification:'Swiss911 XCm BT Condensed';letter-spacing:3.33999991px;fill:#dc0267;fill-opacity:1"
           id="path3363"
           inkscape:connector-curvature="0" />
        <path
           d="m 134.69458,42.566181 0,-23.046875 5,0 0,1.933594 0.0781,0 q 0.64453,-1.210938 1.54297,-1.777344 0.89844,-0.585937 2.08984,-0.585937 1.66016,0 2.48047,0.996093 0.83985,0.976563 0.83985,2.929688 l 0,8.90625 -5.11719,0 0,-7.226563 q 0,-0.800781 -0.21485,-1.074218 -0.19531,-0.292969 -0.70312,-0.292969 -0.46875,0 -0.70313,0.332031 -0.21484,0.332031 -0.21484,1.035156 l 0,17.871094 -5.07812,0 z"
           style="font-style:normal;font-variant:normal;font-weight:normal;font-stretch:condensed;font-size:40px;line-height:85.00000238%;font-family:'Swiss911 XCm BT';-inkscape-font-specification:'Swiss911 XCm BT Condensed';letter-spacing:3.33999991px;fill:#dc0267;fill-opacity:1"
           id="path3365"
           inkscape:connector-curvature="0" />
        <path
           d="m 157.09708,23.972431 0,4.355469 1.83593,0 0,-4.355469 q 0,-0.761719 -0.21484,-1.074219 -0.21484,-0.332031 -0.70313,-0.332031 -0.48828,0 -0.70312,0.332031 -0.21484,0.3125 -0.21484,1.074219 z m 0,13.945313 q 0,0.761718 0.21484,1.09375 0.21484,0.3125 0.70312,0.3125 0.48829,0 0.70313,-0.3125 0.21484,-0.332032 0.21484,-1.09375 l 0,-4.316407 5.07813,0 0,4.277344 q 0,2.5 -1.58203,3.886719 -1.5625,1.367187 -4.41407,1.367187 -3.22265,0 -4.60937,-1.484375 -1.38672,-1.484375 -1.38672,-5.078125 l 0,-11.035156 q 0,-3.632812 1.36719,-5.097656 1.36719,-1.464844 4.58984,-1.464844 2.83203,0 4.4336,1.328125 1.60156,1.308594 1.60156,3.632813 l 0,7.832031 -6.91406,0 0,6.152344 z"
           style="font-style:normal;font-variant:normal;font-weight:normal;font-stretch:condensed;font-size:40px;line-height:85.00000238%;font-family:'Swiss911 XCm BT';-inkscape-font-specification:'Swiss911 XCm BT Condensed';letter-spacing:3.33999991px;fill:#dc0267;fill-opacity:1"
           id="path3367"
           inkscape:connector-curvature="0" />
        <path
           d="m 168.9527,42.566181 0,-23.046875 5.07813,0 0,23.046875 -5.07813,0 z m 0,-24.433594 0,-4.375 5.07813,0 0,4.375 -5.07813,0 z"
           style="font-style:normal;font-variant:normal;font-weight:normal;font-stretch:condensed;font-size:40px;line-height:85.00000238%;font-family:'Swiss911 XCm BT';-inkscape-font-specification:'Swiss911 XCm BT Condensed';letter-spacing:3.33999991px;fill:#dc0267;fill-opacity:1"
           id="path3369"
           inkscape:connector-curvature="0" />
        <path
           d="m 179.89036,42.566181 0,-19.394531 -1.25,0 0,-3.652344 1.25,0 0,-2.1875 q 0,-1.679687 1.01562,-2.617187 1.01563,-0.957032 2.83203,-0.957032 l 2.8711,0 0,3.613282 q -0.89844,0 -1.26953,0.214843 -0.3711,0.195313 -0.3711,0.703125 l 0,1.230469 1.64063,0 0,3.652344 -1.64063,0 0,19.394531 -5.07812,0 z"
           style="font-style:normal;font-variant:normal;font-weight:normal;font-stretch:condensed;font-size:40px;line-height:85.00000238%;font-family:'Swiss911 XCm BT';-inkscape-font-specification:'Swiss911 XCm BT Condensed';letter-spacing:3.33999991px;fill:#dc0267;fill-opacity:1"
           id="path3371"
           inkscape:connector-curvature="0" />
        <path
           d="m 202.89832,19.519306 0,23.046875 -5,0 0,-1.914062 -0.11718,0 q -0.64454,1.191406 -1.52344,1.757812 -0.85938,0.546875 -2.07031,0.546875 -1.66016,0 -2.5,-0.957031 -0.82032,-0.976563 -0.82032,-2.910156 l 0,-19.570313 5.07813,0 0,17.890625 q 0,0.761719 0.21484,1.054688 0.23438,0.292968 0.74219,0.292968 0.46875,0 0.66406,-0.3125 0.21485,-0.3125 0.21485,-1.035156 l 0,-17.890625 5.11718,0 z"
           style="font-style:normal;font-variant:normal;font-weight:normal;font-stretch:condensed;font-size:40px;line-height:85.00000238%;font-family:'Swiss911 XCm BT';-inkscape-font-specification:'Swiss911 XCm BT Condensed';letter-spacing:3.33999991px;fill:#dc0267;fill-opacity:1"
           id="path3373"
           inkscape:connector-curvature="0" />
        <path
           d="m 207.87895,42.566181 0,-23.046875 5,0 0,1.933594 0.0781,0 q 0.64453,-1.210938 1.54297,-1.777344 0.89843,-0.585937 2.08984,-0.585937 1.66016,0 2.48047,0.996093 0.83984,0.976563 0.83984,2.929688 l 0,19.550781 -5.11719,0 0,-17.871094 q 0,-0.800781 -0.21484,-1.074218 -0.19531,-0.292969 -0.70312,-0.292969 -0.46875,0 -0.70313,0.332031 -0.21484,0.332031 -0.21484,1.035156 l 0,17.871094 -5.07813,0 z"
           style="font-style:normal;font-variant:normal;font-weight:normal;font-stretch:condensed;font-size:40px;line-height:85.00000238%;font-family:'Swiss911 XCm BT';-inkscape-font-specification:'Swiss911 XCm BT Condensed';letter-spacing:3.33999991px;fill:#dc0267;fill-opacity:1"
           id="path3375"
           inkscape:connector-curvature="0" />
        <path
           d="m 224.89082,42.566181 0,-28.808594 5.07813,0 0,15.800782 0.0781,0 2.16797,-10.039063 5.19531,0 -2.51953,9.960938 2.51953,13.085937 -5.35156,0 -2.01172,-12.070312 -0.0781,0 0,12.070312 -5.07813,0 z"
           style="font-style:normal;font-variant:normal;font-weight:normal;font-stretch:condensed;font-size:40px;line-height:85.00000238%;font-family:'Swiss911 XCm BT';-inkscape-font-specification:'Swiss911 XCm BT Condensed';letter-spacing:3.33999991px;fill:#dc0267;fill-opacity:1"
           id="path3377"
           inkscape:connector-curvature="0" />
        <path
           d="m 119.12801,76.566182 0,-28.808594 7.89063,0 2.03125,12.207032 q 0.27344,1.640625 0.46875,3.671875 0.19531,2.03125 0.33203,4.648437 l 0.23437,0 q -0.13671,-3.046875 -0.21484,-5.3125 -0.0586,-2.285156 -0.0586,-3.28125 l -0.0391,-11.933594 4.51172,0 0,28.808594 -6.75781,0 -2.94922,-15.644531 q -0.17578,-0.917969 -0.44922,-2.773438 -0.2539,-1.855468 -0.52734,-4.0625 l -0.15625,0 q 0.11719,1.796875 0.17578,3.144532 0.0781,1.347656 0.0781,2.207031 l 0,17.128906 -4.57032,0 z"
           style="font-style:normal;font-variant:normal;font-weight:normal;font-stretch:condensed;font-size:40px;line-height:85.00000238%;font-family:'Swiss911 XCm BT';-inkscape-font-specification:'Swiss911 XCm BT Condensed';letter-spacing:3.33999991px;fill:#dc0267;fill-opacity:1"
           id="path3379"
           inkscape:connector-curvature="0" />
        <path
           d="m 139.38208,76.566182 0,-23.046875 5.07812,0 0,23.046875 -5.07812,0 z m 0,-24.433594 0,-4.375 5.07812,0 0,4.375 -5.07812,0 z"
           style="font-style:normal;font-variant:normal;font-weight:normal;font-stretch:condensed;font-size:40px;line-height:85.00000238%;font-family:'Swiss911 XCm BT';-inkscape-font-specification:'Swiss911 XCm BT Condensed';letter-spacing:3.33999991px;fill:#dc0267;fill-opacity:1"
           id="path3381"
           inkscape:connector-curvature="0" />
        <path
           d="m 154.51895,57.972432 0,4.355469 1.83594,0 0,-4.355469 q 0,-0.761719 -0.21485,-1.074219 -0.21484,-0.332031 -0.70312,-0.332031 -0.48828,0 -0.70313,0.332031 -0.21484,0.3125 -0.21484,1.074219 z m 0,13.945313 q 0,0.761718 0.21484,1.09375 0.21485,0.3125 0.70313,0.3125 0.48828,0 0.70312,-0.3125 0.21485,-0.332032 0.21485,-1.09375 l 0,-4.316407 5.07812,0 0,4.277344 q 0,2.5 -1.58203,3.886719 -1.5625,1.367187 -4.41406,1.367187 -3.22266,0 -4.60938,-1.484375 -1.38671,-1.484375 -1.38671,-5.078125 l 0,-11.035156 q 0,-3.632812 1.36718,-5.097656 1.36719,-1.464844 4.58985,-1.464844 2.83203,0 4.43359,1.328125 1.60156,1.308594 1.60156,3.632813 l 0,7.832031 -6.91406,0 0,6.152344 z"
           style="font-style:normal;font-variant:normal;font-weight:normal;font-stretch:condensed;font-size:40px;line-height:85.00000238%;font-family:'Swiss911 XCm BT';-inkscape-font-specification:'Swiss911 XCm BT Condensed';letter-spacing:3.33999991px;fill:#dc0267;fill-opacity:1"
           id="path3383"
           inkscape:connector-curvature="0" />
        <path
           d="m 178.28864,76.566182 -5,0 0,-1.992187 -0.0781,0 q -0.50781,1.269531 -1.42578,1.914062 -0.89844,0.644531 -2.20703,0.644531 -1.66016,0 -2.48047,-0.957031 -0.80078,-0.976562 -0.80078,-2.929687 l 0,-16.230469 q 0,-1.972656 0.82031,-2.949219 0.82032,-0.976562 2.46094,-0.976562 1.21094,0 2.08984,0.585937 0.87891,0.585938 1.46485,1.777344 l 0.0781,0 0,-7.695313 5.07813,0 0,28.808594 z m -6.91406,-5.039062 q 0,0.800781 0.19531,1.113281 0.21484,0.292969 0.72265,0.292969 0.46875,0 0.6836,-0.351563 0.23437,-0.351562 0.23437,-1.054687 l 0,-12.832032 q 0,-0.703125 -0.23437,-1.035156 -0.21485,-0.332031 -0.6836,-0.332031 -0.50781,0 -0.72265,0.292969 -0.19531,0.273437 -0.19531,1.074218 l 0,12.832032 z"
           style="font-style:normal;font-variant:normal;font-weight:normal;font-stretch:condensed;font-size:40px;line-height:85.00000238%;font-family:'Swiss911 XCm BT';-inkscape-font-specification:'Swiss911 XCm BT Condensed';letter-spacing:3.33999991px;fill:#dc0267;fill-opacity:1"
           id="path3385"
           inkscape:connector-curvature="0" />
        <path
           d="m 188.30833,57.972432 0,4.355469 1.83593,0 0,-4.355469 q 0,-0.761719 -0.21484,-1.074219 -0.21484,-0.332031 -0.70313,-0.332031 -0.48828,0 -0.70312,0.332031 -0.21484,0.3125 -0.21484,1.074219 z m 0,13.945313 q 0,0.761718 0.21484,1.09375 0.21484,0.3125 0.70312,0.3125 0.48829,0 0.70313,-0.3125 0.21484,-0.332032 0.21484,-1.09375 l 0,-4.316407 5.07813,0 0,4.277344 q 0,2.5 -1.58203,3.886719 -1.5625,1.367187 -4.41407,1.367187 -3.22265,0 -4.60937,-1.484375 -1.38672,-1.484375 -1.38672,-5.078125 l 0,-11.035156 q 0,-3.632812 1.36719,-5.097656 1.36719,-1.464844 4.58984,-1.464844 2.83203,0 4.4336,1.328125 1.60156,1.308594 1.60156,3.632813 l 0,7.832031 -6.91406,0 0,6.152344 z"
           style="font-style:normal;font-variant:normal;font-weight:normal;font-stretch:condensed;font-size:40px;line-height:85.00000238%;font-family:'Swiss911 XCm BT';-inkscape-font-specification:'Swiss911 XCm BT Condensed';letter-spacing:3.33999991px;fill:#dc0267;fill-opacity:1"
           id="path3387"
           inkscape:connector-curvature="0" />
        <path
           d="m 200.16395,76.566182 0,-23.046875 5,0 0,1.933594 0.0781,0 q 0.64453,-1.210938 1.54297,-1.777344 0.89844,-0.585937 2.08985,-0.585937 1.66015,0 2.48046,0.996093 0.83985,0.976563 0.83985,2.929688 l 0,8.90625 -5.11719,0 0,-7.226563 q 0,-0.800781 -0.21484,-1.074218 -0.19532,-0.292969 -0.70313,-0.292969 -0.46875,0 -0.70312,0.332031 -0.21485,0.332031 -0.21485,1.035156 l 0,17.871094 -5.07812,0 z"
           style="font-style:normal;font-variant:normal;font-weight:normal;font-stretch:condensed;font-size:40px;line-height:85.00000238%;font-family:'Swiss911 XCm BT';-inkscape-font-specification:'Swiss911 XCm BT Condensed';letter-spacing:3.33999991px;fill:#dc0267;fill-opacity:1"
           id="path3389"
           inkscape:connector-curvature="0" />
        <path
           d="m 217.56645,76.566182 0,-23.046875 5,0 0,1.933594 0.0781,0 q 0.64453,-1.210938 1.54297,-1.777344 0.89843,-0.585937 2.08984,-0.585937 1.66016,0 2.48047,0.996093 0.83984,0.976563 0.83984,2.929688 l 0,8.90625 -5.11719,0 0,-7.226563 q 0,-0.800781 -0.21484,-1.074218 -0.19531,-0.292969 -0.70312,-0.292969 -0.46875,0 -0.70313,0.332031 -0.21484,0.332031 -0.21484,1.035156 l 0,17.871094 -5.07813,0 z"
           style="font-style:normal;font-variant:normal;font-weight:normal;font-stretch:condensed;font-size:40px;line-height:85.00000238%;font-family:'Swiss911 XCm BT';-inkscape-font-specification:'Swiss911 XCm BT Condensed';letter-spacing:3.33999991px;fill:#dc0267;fill-opacity:1"
           id="path3391"
           inkscape:connector-curvature="0" />
        <path
           d="m 234.96895,76.566182 0,-28.808594 5.07812,0 0,7.695313 0.0781,0 q 0.5664,-1.210938 1.44531,-1.777344 0.87891,-0.585937 2.10938,-0.585937 1.66015,0 2.48046,0.996093 0.83985,0.976563 0.83985,2.929688 l 0,19.550781 -5.11719,0 0,-17.871094 q 0,-0.800781 -0.21484,-1.074218 -0.19532,-0.292969 -0.70313,-0.292969 -0.46875,0 -0.70312,0.332031 -0.21485,0.332031 -0.21485,1.035156 l 0,17.871094 -5.07812,0 z"
           style="font-style:normal;font-variant:normal;font-weight:normal;font-stretch:condensed;font-size:40px;line-height:85.00000238%;font-family:'Swiss911 XCm BT';-inkscape-font-specification:'Swiss911 XCm BT Condensed';letter-spacing:3.33999991px;fill:#dc0267;fill-opacity:1"
           id="path3393"
           inkscape:connector-curvature="0" />
        <path
           d="m 256.98083,57.972432 0,4.355469 1.83593,0 0,-4.355469 q 0,-0.761719 -0.21484,-1.074219 -0.21484,-0.332031 -0.70312,-0.332031 -0.48829,0 -0.70313,0.332031 -0.21484,0.3125 -0.21484,1.074219 z m 0,13.945313 q 0,0.761718 0.21484,1.09375 0.21484,0.3125 0.70313,0.3125 0.48828,0 0.70312,-0.3125 0.21484,-0.332032 0.21484,-1.09375 l 0,-4.316407 5.07813,0 0,4.277344 q 0,2.5 -1.58203,3.886719 -1.5625,1.367187 -4.41406,1.367187 -3.22266,0 -4.60938,-1.484375 -1.38672,-1.484375 -1.38672,-5.078125 l 0,-11.035156 q 0,-3.632812 1.36719,-5.097656 1.36719,-1.464844 4.58984,-1.464844 2.83203,0 4.4336,1.328125 1.60156,1.308594 1.60156,3.632813 l 0,7.832031 -6.91406,0 0,6.152344 z"
           style="font-style:normal;font-variant:normal;font-weight:normal;font-stretch:condensed;font-size:40px;line-height:85.00000238%;font-family:'Swiss911 XCm BT';-inkscape-font-specification:'Swiss911 XCm BT Condensed';letter-spacing:3.33999991px;fill:#dc0267;fill-opacity:1"
           id="path3395"
           inkscape:connector-curvature="0" />
        <path
           d="m 268.83645,76.566182 0,-23.046875 5.07812,0 0,23.046875 -5.07812,0 z m 0,-24.433594 0,-4.375 5.07812,0 0,4.375 -5.07812,0 z"
           style="font-style:normal;font-variant:normal;font-weight:normal;font-stretch:condensed;font-size:40px;line-height:85.00000238%;font-family:'Swiss911 XCm BT';-inkscape-font-specification:'Swiss911 XCm BT Condensed';letter-spacing:3.33999991px;fill:#dc0267;fill-opacity:1"
           id="path3397"
           inkscape:connector-curvature="0" />
        <path
           d="m 278.97332,76.566182 0,-23.046875 5,0 0,1.933594 0.0781,0 q 0.64454,-1.210938 1.54297,-1.777344 0.89844,-0.585937 2.08985,-0.585937 1.66015,0 2.48047,0.996093 0.83984,0.976563 0.83984,2.929688 l 0,19.550781 -5.11719,0 0,-17.871094 q 0,-0.800781 -0.21484,-1.074218 -0.19531,-0.292969 -0.70313,-0.292969 -0.46875,0 -0.70312,0.332031 -0.21485,0.332031 -0.21485,1.035156 l 0,17.871094 -5.07812,0 z"
           style="font-style:normal;font-variant:normal;font-weight:normal;font-stretch:condensed;font-size:40px;line-height:85.00000238%;font-family:'Swiss911 XCm BT';-inkscape-font-specification:'Swiss911 XCm BT Condensed';letter-spacing:3.33999991px;fill:#dc0267;fill-opacity:1"
           id="path3399"
           inkscape:connector-curvature="0" />
      </g>
      <rect
         style="fill:none;fill-opacity:1;stroke:none;stroke-width:1.01724005"
         id="rect3393"
         width="326.10095"
         height="100.87174"
         x="-9.8133631"
         y="-8.7763815" />
    </g>
  </g>
</svg>
