<?xml version="1.0" encoding="UTF-8" standalone="no"?>
<!-- Created with Inkscape (http://www.inkscape.org/) -->

<svg
   xmlns:dc="http://purl.org/dc/elements/1.1/"
   xmlns:cc="http://creativecommons.org/ns#"
   xmlns:rdf="http://www.w3.org/1999/02/22-rdf-syntax-ns#"
   xmlns:svg="http://www.w3.org/2000/svg"
   xmlns="http://www.w3.org/2000/svg"
   xmlns:sodipodi="http://sodipodi.sourceforge.net/DTD/sodipodi-0.dtd"
   xmlns:inkscape="http://www.inkscape.org/namespaces/inkscape"
   width="912"
   height="291"
   viewBox="0 0 912.00001 291"
   id="svg3439"
   version="1.1"
   inkscape:version="0.91 r13725"
   sodipodi:docname="FF-Niederrhein_Logo_vector.svg">
  <defs
     id="defs3441" />
  <sodipodi:namedview
     id="base"
     pagecolor="#ffffff"
     bordercolor="#666666"
     borderopacity="1.0"
     inkscape:pageopacity="0.0"
     inkscape:pageshadow="2"
     inkscape:zoom="0.35"
     inkscape:cx="325"
     inkscape:cy="520"
     inkscape:document-units="px"
     inkscape:current-layer="layer1"
     showgrid="false"
     units="px"
     inkscape:window-width="1608"
     inkscape:window-height="1028"
     inkscape:window-x="64"
     inkscape:window-y="-8"
     inkscape:window-maximized="1" />
  <metadata
     id="metadata3444">
    <rdf:RDF>
      <cc:Work
         rdf:about="">
        <dc:format>image/svg+xml</dc:format>
        <dc:type
           rdf:resource="http://purl.org/dc/dcmitype/StillImage" />
        <dc:title></dc:title>
      </cc:Work>
    </rdf:RDF>
  </metadata>
  <g
     inkscape:label="Ebene 1"
     inkscape:groupmode="layer"
     id="layer1"
     transform="translate(0,-761.36216)">
    <g
       id="g3397"
       transform="matrix(2.906046,0,0,2.906046,24.66045,784.57372)"
       inkscape:export-xdpi="259.63657"
       inkscape:export-ydpi="259.63657">
      <g
         id="g3337">
        <path
           id="path3339"
           d="M 0,53.3 C 0,37.4 12.9,24.5 28.8,24.5 44.7,24.5 57.6,37.4 57.6,53.3 57.6,69.2 44.7,82 28.8,82 12.9,82 0,69.1 0,53.3 l 0,0 z"
           inkscape:connector-curvature="0"
           style="fill:#ffffff" />
        <path
           id="path3341"
           d="M 27.2,41.9 C 27.2,18.7 45.8,0 68.9,0 c 23,0 41.7,18.7 41.7,41.9 0,23.2 -18.7,41.8 -41.7,41.8 C 45.8,83.7 27.2,65 27.2,41.9 l 0,0 z"
           inkscape:connector-curvature="0"
           style="fill:#ffffff" />
        <path
           id="path3343"
           d="M 28.8,76.4 C 16,76.4 5.7,66 5.7,53.3 5.7,40.6 16,30.1 28.8,30.1 c 12.7,0 23.1,10.4 23.1,23.2 0,12.8 -10.4,23.1 -23.1,23.1 z m 0,-45.2 c -12.1,0 -22,9.9 -22,22.1 0,12.2 9.9,22.1 22,22.1 12.1,0 22,-9.9 22,-22.1 0,-12.2 -9.9,-22.1 -22,-22.1 z"
           inkscape:connector-curvature="0"
           style="fill:#dc0267" />
        <polygon
           id="polygon3345"
           points="57.6,48.1 67.2,38.5 76.2,38.5 69.8,44.9 82.5,44.9 82.5,51.3 69.8,51.3 76.2,57.7 67.2,57.7 57.6,48.1 "
           style="fill:#fab313" />
        <polygon
           id="polygon3347"
           points="29.4,48.1 23.7,42.5 18.4,42.5 22.2,46.2 14.7,46.2 14.7,50 22.2,50 18.4,53.8 23.7,53.8 29.4,48.1 "
           style="fill:#fab313" />
        <path
           id="path3349"
           d="M 68.9,76.9 C 49.6,76.9 34,61.2 34,41.8 34,22.5 49.7,6.7 68.9,6.7 c 19.3,0 34.9,15.7 34.9,35.1 0,19.4 -15.7,35.1 -34.9,35.1 z m 0,-63.3 c -15.5,0 -28.1,12.7 -28.1,28.3 0,15.6 12.6,28.3 28.1,28.3 C 84.4,70.1 97,57.5 97,41.9 97,26.3 84.4,13.6 68.9,13.6 Z"
           inkscape:connector-curvature="0"
           style="fill:#dc0267" />
        <path
           id="path3351"
           d="M 68.9,66.7 C 55.3,66.7 44.2,55.6 44.2,41.9 44.1,28.2 55.2,17 68.9,17 c 13.7,0 24.7,11.1 24.7,24.8 0,13.8 -11.1,24.9 -24.7,24.9 z m 0,-48.5 c -13,0 -23.6,10.6 -23.6,23.7 0,13.1 10.6,23.7 23.6,23.7 13,0 23.6,-10.6 23.6,-23.7 0,-13.1 -10.6,-23.7 -23.6,-23.7 z"
           inkscape:connector-curvature="0"
           style="fill:#dc0267" />
      </g>
      <text
         xml:space="preserve"
         style="font-style:normal;font-weight:normal;font-size:42.41165543px;line-height:85.00000238%;font-family:sans-serif;letter-spacing:0px;word-spacing:0px;fill:#dc0267;fill-opacity:1;stroke:none;stroke-width:1px;stroke-linecap:butt;stroke-linejoin:miter;stroke-opacity:1"
         x="109.38515"
         y="42.566181"
         id="text3426"
         sodipodi:linespacing="85.000002%"
         transform="scale(1.0316026,0.96936557)"><tspan
           sodipodi:role="line"
           x="109.38515"
           y="42.566181"
           style="font-style:normal;font-variant:normal;font-weight:normal;font-stretch:condensed;font-size:40px;line-height:85.00000238%;font-family:'Swiss911 XCm BT';-inkscape-font-specification:'Swiss911 XCm BT Condensed';letter-spacing:3.33999991px;fill:#dc0267;fill-opacity:1"
           id="tspan3430">Freifunk</tspan><tspan
           sodipodi:role="line"
           x="109.38515"
           y="76.566185"
           style="font-style:normal;font-variant:normal;font-weight:normal;font-stretch:condensed;font-size:40px;line-height:85.00000238%;font-family:'Swiss911 XCm BT';-inkscape-font-specification:'Swiss911 XCm BT Condensed';letter-spacing:3.33999991px;fill:#dc0267;fill-opacity:1"
           id="tspan3434">Niederrhein</tspan></text>
      <rect
         style="fill:none;fill-opacity:1;stroke:none;stroke-width:1.01724005"
         id="rect3393"
         width="316.28677"
         height="100.87174"
         x="-9.8133631"
         y="-8.7763815" />
    </g>
  </g>
</svg>
